<?xml version="1.0" encoding="utf-8"?>
<!-- Generator: Adobe Illustrator 16.0.0, SVG Export Plug-In . SVG Version: 6.00 Build 0)  -->
<!DOCTYPE svg PUBLIC "-//W3C//DTD SVG 1.1//EN" "http://www.w3.org/Graphics/SVG/1.1/DTD/svg11.dtd">
<svg version="1.1" id="Layer_1" xmlns="http://www.w3.org/2000/svg" xmlns:xlink="http://www.w3.org/1999/xlink" x="0px" y="0px"
	 width="16px" height="16px" viewBox="0 0 16 16" enable-background="new 0 0 16 16" xml:space="preserve">
<path fill="#FFFFFF" d="M4,7c0-0.256,0.098-0.511,0.293-0.707c0.39-0.391,1.024-0.391,1.414,0L8,8.586l2.293-2.293
	c0.391-0.391,1.023-0.391,1.414,0s0.391,1.023,0,1.414l-3,3c-0.391,0.391-1.024,0.391-1.414,0l-3-3C4.098,7.511,4,7.256,4,7L4,7z
	 M15,8c0-1.871-0.729-3.629-2.051-4.95C11.627,1.728,9.869,1,8,1S4.373,1.728,3.051,3.05C1.729,4.371,1,6.129,1,8
	c0,1.869,0.729,3.627,2.051,4.949S6.131,15,8,15s3.627-0.729,4.949-2.051S15,9.869,15,8 M16,8c0,4.418-3.582,8-8,8s-8-3.582-8-8
	c0-4.419,3.582-8,8-8S16,3.581,16,8L16,8z"/>
</svg>
