<?xml version="1.0" encoding="utf-8"?>
<!-- Generator: Adobe Illustrator 16.0.0, SVG Export Plug-In . SVG Version: 6.00 Build 0)  -->
<!DOCTYPE svg PUBLIC "-//W3C//DTD SVG 1.1//EN" "http://www.w3.org/Graphics/SVG/1.1/DTD/svg11.dtd">
<svg version="1.1" id="Layer_1" xmlns="http://www.w3.org/2000/svg" xmlns:xlink="http://www.w3.org/1999/xlink" x="0px" y="0px"
	 width="16px" height="16px" viewBox="0 0 16 16" enable-background="new 0 0 16 16" xml:space="preserve">
<path display="none" fill="#25B02F" d="M8,1c1.871,0,3.628,0.727,4.949,2.05C14.271,4.373,15,6.13,15,8
	c0,1.868-0.729,3.626-2.051,4.949C11.628,14.272,9.871,15,8,15c-1.869,0-3.627-0.728-4.949-2.051C1.729,11.627,1,9.868,1,8
	c0-1.871,0.729-3.628,2.05-4.95C4.373,1.727,6.131,1,8,1 M8,0C3.582,0,0,3.582,0,8c0,4.418,3.582,8,8,8c4.418,0,7.999-3.581,7.999-8
	C15.999,3.582,12.418,0,8,0L8,0z M7,11.5c0.018,0,0.037,0,0.055-0.002c0.284-0.014,0.548-0.151,0.726-0.373l4.001-5.001
	c0.345-0.431,0.275-1.06-0.157-1.405c-0.432-0.345-1.062-0.274-1.406,0.156L6.917,9.003l-1.209-1.21
	c-0.39-0.391-1.024-0.391-1.415,0c-0.389,0.39-0.389,1.024,0,1.413l2,2.001C6.481,11.396,6.735,11.5,7,11.5L7,11.5z"/>
<path fill="#BB1414" d="M8,1c1.869,0,3.627,0.729,4.949,2.05C14.273,4.373,15,6.13,15,8.001c0,1.87-0.727,3.626-2.051,4.948
	c-1.322,1.323-3.08,2.05-4.949,2.05s-3.627-0.727-4.949-2.05c-1.322-1.322-2.05-3.078-2.05-4.948c0-1.871,0.728-3.628,2.05-4.951
	C4.373,1.729,6.131,1,8,1 M8,0C3.583,0,0,3.582,0,8.001C0,12.418,3.583,16,8,16c4.417,0,7.999-3.582,7.999-7.999
	C15.999,3.582,12.417,0,8,0L8,0z M9.414,8.001l2.294-2.293c0.392-0.391,0.392-1.024,0-1.415s-1.022-0.391-1.414,0L8,6.585
	L5.708,4.293c-0.39-0.391-1.024-0.391-1.414,0c-0.391,0.391-0.391,1.024,0,1.415l2.292,2.293l-2.292,2.291
	c-0.391,0.391-0.391,1.025,0,1.415C4.489,11.902,4.745,12,5.001,12c0.255,0,0.512-0.098,0.707-0.293L8,9.414l2.294,2.293
	C10.489,11.902,10.744,12,11,12c0.255,0,0.513-0.098,0.708-0.293c0.392-0.39,0.392-1.024,0-1.415L9.414,8.001z"/>
</svg>
