<?xml version="1.0" encoding="utf-8"?>
<!-- Generator: Adobe Illustrator 16.0.0, SVG Export Plug-In . SVG Version: 6.00 Build 0)  -->
<!DOCTYPE svg PUBLIC "-//W3C//DTD SVG 1.1//EN" "http://www.w3.org/Graphics/SVG/1.1/DTD/svg11.dtd">
<svg version="1.1" id="Layer_1" xmlns="http://www.w3.org/2000/svg" xmlns:xlink="http://www.w3.org/1999/xlink" x="0px" y="0px"
	 width="16px" height="16px" viewBox="0 0 16 16" enable-background="new 0 0 16 16" xml:space="preserve">
<path fill="#FFFFFF" d="M0.293,8.697l4,4c0.391,0.391,1.025,0.391,1.414,0c0.391-0.391,0.391-1.023,0-1.414L3.415,8.989h11.586
	c0.553,0,1-0.449,1-1c0-0.552-0.447-1-1-1H3.415l2.292-2.294c0.391-0.39,0.391-1.023,0-1.414C5.513,3.086,5.256,2.988,5.001,2.988
	c-0.257,0-0.513,0.098-0.708,0.293l-4,4C-0.098,7.673-0.098,8.305,0.293,8.697z"/>
</svg>
