<?xml version="1.0" encoding="utf-8"?>
<!-- Generator: Adobe Illustrator 16.0.0, SVG Export Plug-In . SVG Version: 6.00 Build 0)  -->
<!DOCTYPE svg PUBLIC "-//W3C//DTD SVG 1.1//EN" "http://www.w3.org/Graphics/SVG/1.1/DTD/svg11.dtd">
<svg version="1.1" id="Layer_1" xmlns="http://www.w3.org/2000/svg" xmlns:xlink="http://www.w3.org/1999/xlink" x="0px" y="0px"
	 width="16px" height="16px" viewBox="0 0 16 16" enable-background="new 0 0 16 16" xml:space="preserve">
<path fill="#FFFFFF" d="M8,16c-2.137,0-4.146-0.832-5.657-2.344C0.833,12.146,0,10.137,0,8s0.833-4.146,2.343-5.657
	c0.391-0.39,1.023-0.39,1.414,0c0.391,0.391,0.391,1.023,0,1.415C2.624,4.891,2,6.397,2,8c0,1.604,0.624,3.109,1.757,4.243
	C4.891,13.376,6.397,14,8,14s3.11-0.624,4.243-1.757C13.375,11.109,14,9.604,14,8c0-1.603-0.625-3.109-1.757-4.242
	c-0.392-0.391-0.392-1.024,0-1.415c0.391-0.39,1.023-0.39,1.414,0c1.511,1.511,2.344,3.52,2.344,5.657s-0.833,4.146-2.344,5.656
	C12.146,15.168,10.136,16,8,16L8,16z M8,9c0.552,0,1-0.448,1-1V1c0-0.552-0.447-1-1-1S7,0.448,7,1v7C7,8.552,7.448,9,8,9L8,9z"/>
</svg>
