<?xml version="1.0" encoding="utf-8"?>
<!-- Generator: Adobe Illustrator 16.0.0, SVG Export Plug-In . SVG Version: 6.00 Build 0)  -->
<!DOCTYPE svg PUBLIC "-//W3C//DTD SVG 1.1//EN" "http://www.w3.org/Graphics/SVG/1.1/DTD/svg11.dtd">
<svg version="1.1" id="Layer_1" xmlns="http://www.w3.org/2000/svg" xmlns:xlink="http://www.w3.org/1999/xlink" x="0px" y="0px"
	 width="16px" height="16px" viewBox="0 0 16 16" enable-background="new 0 0 16 16" xml:space="preserve">
<path fill="#C73E0D" d="M4.25,2C4.665,2,5,2.335,5,2.749c0,0.414-0.335,0.75-0.75,0.75S3.5,3.163,3.5,2.749
	C3.5,2.335,3.836,2,4.25,2 M4.25,1.5C3.561,1.5,3,2.06,3,2.749c0,0.689,0.56,1.25,1.25,1.25c0.688,0,1.25-0.561,1.25-1.25
	C5.5,2.06,4.939,1.5,4.25,1.5L4.25,1.5z M11.75,2c0.415,0,0.752,0.335,0.752,0.75c0,0.414-0.337,0.75-0.752,0.75
	c-0.414,0-0.75-0.336-0.75-0.75C11,2.335,11.336,2,11.75,2 M11.75,1.5c-0.689,0-1.249,0.561-1.249,1.25
	c0,0.689,0.56,1.25,1.249,1.25c0.688,0,1.249-0.561,1.249-1.25C12.999,2.06,12.438,1.5,11.75,1.5L11.75,1.5z M14-0.001H2.001
	C0.897-0.001,0,0.896,0,2v12c0,1.102,0.897,2,2.001,2H14c1.104,0,1.999-0.898,1.999-2V2C15.999,0.896,15.104-0.001,14-0.001z
	 M2.001,0.999H14c0.55,0,1.001,0.451,1.001,1v2.5H1V2C1,1.45,1.451,0.999,2.001,0.999z M14,15H2.001C1.451,15,1,14.551,1,14V4.999
	h14.001V14C15.001,14.551,14.55,15,14,15z M10.501,9H9V7.5c0-0.553-0.446-1-0.999-1s-1,0.446-1,1V9H5.5c-0.552,0-1,0.448-1,1
	c0,0.553,0.448,1.001,1,1.001h1.5V12.5c0,0.552,0.447,1,1,1S9,13.052,9,12.5v-1.499h1.501c0.552,0,0.999-0.448,0.999-1.001
	C11.5,9.448,11.053,9,10.501,9z"/>
</svg>
