<?xml version="1.0" encoding="utf-8"?>
<!-- Generator: Adobe Illustrator 16.0.0, SVG Export Plug-In . SVG Version: 6.00 Build 0)  -->
<!DOCTYPE svg PUBLIC "-//W3C//DTD SVG 1.1//EN" "http://www.w3.org/Graphics/SVG/1.1/DTD/svg11.dtd">
<svg version="1.1" id="Layer_1" xmlns="http://www.w3.org/2000/svg" xmlns:xlink="http://www.w3.org/1999/xlink" x="0px" y="0px"
	 width="16px" height="16px" viewBox="0 0 16 16" enable-background="new 0 0 16 16" xml:space="preserve">
<path fill="#FFFFFF" d="M12,7.269V4c0-2.206-1.793-4-4-4C5.794,0,4,1.794,4,4v3.269C3.403,7.616,3,8.261,3,9.001V13v1.999
	C3,15.553,3.448,16,4,16h8c0.553,0,1-0.447,1-1.001V13V9.001C13,8.261,12.598,7.616,12,7.269z M5,4c0-1.656,1.343-3,3-3
	c1.658,0,3,1.344,3,3V7h-1V4C10,2.895,9.104,2,8,2C6.896,2,6,2.895,6,4V7H5V4z M9,7H7V4c0-0.551,0.449-1,1-1s1,0.449,1,1V7z M5,8h6
	c0.551,0,1,0.45,1,1.001v3.5H4v-3.5C4,8.45,4.451,8,5,8z M12,14.999H4V13h8V14.999z"/>
</svg>
