<?xml version="1.0" encoding="utf-8"?>
<!-- Generator: Adobe Illustrator 16.0.0, SVG Export Plug-In . SVG Version: 6.00 Build 0)  -->
<!DOCTYPE svg PUBLIC "-//W3C//DTD SVG 1.1//EN" "http://www.w3.org/Graphics/SVG/1.1/DTD/svg11.dtd">
<svg version="1.1" id="Layer_1" xmlns="http://www.w3.org/2000/svg" xmlns:xlink="http://www.w3.org/1999/xlink" x="0px" y="0px"
	 width="16px" height="16px" viewBox="0 0 16 16" enable-background="new 0 0 16 16" xml:space="preserve">
<path fill="#21409A" d="M8,1c1.87,0,3.628,0.729,4.949,2.05C14.271,4.373,15,6.13,15,8c0,1.87-0.729,3.628-2.051,4.949
	C11.628,14.271,9.87,15,8,15c-1.87,0-3.627-0.729-4.95-2.051C1.729,11.628,1,9.87,1,8c0-1.87,0.729-3.627,2.05-4.95
	C4.373,1.729,6.13,1,8,1 M8,0C3.582,0,0,3.582,0,8c0,4.418,3.582,8,8,8c4.418,0,8-3.582,8-8C16,3.582,12.418,0,8,0L8,0z M8.5,6.5
	C9.328,6.5,10,5.828,10,5S9.328,3.5,8.5,3.5C7.671,3.5,7,4.172,7,5S7.671,6.5,8.5,6.5z M9.469,11.326C9.395,11.127,9.205,11,9,11
	c-0.04,0-0.081,0.005-0.122,0.015l-0.642,0.161L8.97,8.243C9.104,7.707,8.778,7.164,8.242,7.03C8.171,7.012,8.1,7.003,8.03,7.002
	C8.02,7.002,8.01,7,8,7C7.924,7,7.847,7.018,7.776,7.053l-2,1C5.548,8.167,5.443,8.434,5.531,8.674C5.605,8.873,5.795,9,6,9
	c0.04,0,0.081-0.005,0.122-0.015l0.642-0.161L6.03,11.757c-0.133,0.536,0.192,1.079,0.728,1.213C6.838,12.99,6.919,13,6.999,13
	C7,13,7,13,7,13c0.076,0,0.153-0.018,0.224-0.053l1.999-1C9.451,11.833,9.558,11.566,9.469,11.326z"/>
</svg>
