<?xml version="1.0" encoding="utf-8"?>
<!-- Generator: Adobe Illustrator 16.0.0, SVG Export Plug-In . SVG Version: 6.00 Build 0)  -->
<!DOCTYPE svg PUBLIC "-//W3C//DTD SVG 1.1//EN" "http://www.w3.org/Graphics/SVG/1.1/DTD/svg11.dtd">
<svg version="1.1" id="Layer_1" xmlns="http://www.w3.org/2000/svg" xmlns:xlink="http://www.w3.org/1999/xlink" x="0px" y="0px"
	 width="95.084px" height="135.824px" viewBox="0 0 95.084 135.824" enable-background="new 0 0 95.084 135.824"
	 xml:space="preserve">
<g>
	<path fill="#FFFFFF" d="M47.408,1C18.962,1,1,6.124,1,19.724v91.37c0,5.396,7.663,10.911,23.425,16.861
		c11.171,4.217,22.491,7.099,22.605,7.126l0.375,0.095l0.375-0.091c0.114-0.028,11.521-2.863,22.776-7.057
		c15.881-5.917,23.602-11.456,23.602-16.935V19.725C94.158,6.377,75.855,1,47.408,1z M70.493,60.273l0.411,0.037l0.262,0.37
		l0.225,0.294l0.187,0.591l0.224,0.479l0.484,0.223l0.783,0.406h0.746l0.483,0.184v0.185l0.299,0.481l0.261,0.369l0.636,0.369
		l0.447,0.371l0.409,0.331c0,0,0.97,0.738,2.313,0.774l1.045,0.296l0.299,0.406l0.447,0.369l0.224,0.296l-0.261,0.553l-0.821,0.295
		c0,0-1.12,0.589-1.604,1.549c-0.076,0.154-0.133,0.258-0.172,0.325c-0.201,0.353,0.061-0.325,0.061-0.325l-0.97,0.222l-0.56-0.037
		l-0.373-0.516l-0.187-0.186l-0.446,0.074l-0.264,0.444l-0.073,0.221l-0.073,0.627v0.223l-0.821,0.258c0,0-0.895-0.517-1.082-0.554
		c-0.188-0.035-1.865-0.589-1.865-0.589l-1.864-0.96l-1.716-0.996l-2.275-1.329l-4.699-2.657l-1.269-0.849L58,62.014l-1.529-0.37
		l-1.045,0.148l-1.269,0.294l-2.161,0.221l-1.643,0.222l-1.304,0.148h-0.262v-0.406c0,0,1.688-1.44,2.447-2.767l0.463-0.185
		l0.188-0.222l0.26,0.185l0.3,0.186c0,0,1.753,1.402,4.997,1.476c3.245,0.074,12.532-0.258,12.532-0.258L70.493,60.273z
		 M42.933,36.029c0,0,0.596-2.029,0.709-2.029c0.112,0,0.483-1.292,0.483-1.292l0.224-0.701h0.188l0.895,0.443l0.447,0.664
		l0.634,0.553l0.449,0.184l1.08,0.186c0,0,0.187,0.147,0.448,0.185c0.262,0.037,1.231,0.294,1.231,0.294l0.26-0.258l0.486-0.407
		l0.559,0.038l0.209,0.406c0,0-0.236,0.406,0.094,0.553s0.852,0.627,0.852,0.627v0.406l0.784,0.591l0.521,0.48l0.521,0.443h1.344
		v1.07l0.336,0.48l0.708,0.407l0.559,0.59l0.598,0.48l0.597,0.48l0.633,0.406l0.559,0.258l0.41,0.296l0.263,0.333l0.409,0.443
		c0,0,0.338,0.295,0.41,0.406c0.075,0.111,0.038,0.296,0.337,0.48c0.298,0.185,0.447,0.111,0.634,0.443
		c0.187,0.333,0.336,0.48,0.373,0.59c0.037,0.11,0.336,0.258,0.336,0.369c0,0.11,0.483,0.553,0.483,0.553s-0.299-0.147,0,0.147
		c0.299,0.296,0.522,0.443,0.637,0.627c0.109,0.186-0.264-0.11,0.109,0.186c0.353,0.278,0.958,0.522,1.183,0.704
		c-0.058-0.067-0.092-0.151,0.05-0.151c0.298,0,0.82,0.037,0.82,0.037l0.446,0.369l0.783,0.185c0,0,0.038,0,0.15,0.222
		c0.111,0.222,0.298,0.332,0.336,0.444c0.038,0.111,0.075-0.148,0.038,0.111c-0.038,0.259,0.105,0.221,0.016,0.627
		c-0.091,0.406-0.277,0.663-0.277,0.663s-0.073,0.038-0.073,0.296c0,0.259,0.073,0,0,0.259c-0.077,0.258-0.374,0.553-0.374,0.553
		s-0.262-0.259-0.262,0c0,0.258,0.036,0.11,0,0.258c-0.038,0.147,0.038,0.074-0.262,0.37c-0.299,0.294-0.299,0.294-0.299,0.294
		s0,0.444,0.15,0.516c0.148,0.075,0.222,0.074,0.297,0.258c0.075,0.186-0.073,0.186,0.038,0.481
		c0.113,0.295-0.187-0.149,0.113,0.295c0.297,0.443,0.444,0.664,0.52,0.848c0.077,0.185,0.188,0.258,0.3,0.37
		c0.113,0.111-0.035-0.074,0.113,0.111c0.147,0.185-0.076-0.295,0.147,0.185c0.226,0.48,0.337,0.406,0.337,0.701
		c0,0.294-0.038,0.332,0,0.516c0.037,0.184,0.373,0.184,0.373,0.184v0.664l-0.297,0.333c0,0-1.717,0.333-3.021,0
		c-1.307-0.333-7.272-2.546-11.785-2.546l-1.418-0.553l-1.416-0.48l-1.121-0.111l-0.894,0.147l-0.971,0.48l-1.045,0.664
		c0,0-6.84,4.34-8.41,5.813c-0.049,0.046-0.092,0.089-0.13,0.129c-1.268,1.329-0.783,0-0.783,0l-0.858-0.222
		c0,0-1.306-0.368-1.678-0.996c-0.373-0.627-1.007-1.882-1.715-2.399v-3.579l0.26-1.181l0.188-1.255l0.259-0.775l0.374-1.292
		l-0.26-0.627l-0.262-0.333v-0.443c0,0,1.566-0.774,2.425-1.586c0.857-0.811,1.902-2.25,1.902-2.25l2.125-2.583l1.417-1.882
		l0.895-1.623L42.933,36.029z M37.785,35.771l0.373-0.737l0.299-0.849c0,0,0.26-0.763,0.336-0.862
		c0.075-0.098,0.41-1.057,0.41-1.057l0.037-0.627l0.278-0.922l-0.055-0.48c0,0,0.932-1.218,2.015,0l-0.262,0.959l0.037,0.222
		l-0.483,0.517l-0.299,0.589l-0.224,0.553l-0.297,0.812l-0.299,0.369l-0.188,0.554l-0.336,0.553c0,0-0.26,0.442-0.299,0.7
		c-0.037,0.258,0.037,0-0.037,0.258c-0.075,0.259-0.26,0.627-0.26,0.627h-0.785l-0.186-0.407L37.785,35.771z M91.091,106.82
		c0,6.458-2.105,11.095-21.593,18.358c-9.952,3.71-20.718-0.817-22.085-0.817c-1.585,0-12.023,4.483-21.896,0.757
		C6.157,117.81,4.066,113.277,4.066,106.82V25.796c0-8.703,6.857-10.12,15.276-9.054l-0.373,0.234l1.546,0.675
		c0,0,1.455-0.185,1.566-0.111c0.112,0.074,0.896,0.444,0.896,0.444l0.149,0.701l0.149,0.479l0.41,0.37c0,0,0.559,0.553,0.671,0.589
		c0.112,0.037,0.596,0.444,0.596,0.444s0.485,0.147,0.634,0.184s0.597,0.037,0.597,0.037l0.671,0.11l1.23,0.664l0.858,0.886
		l1.156,0.258l0.97,0.037h0.783l0.971,0.37l0.671,0.775l0.484,1.218l0.708,0.737l0.559,0.997l0.671,0.701l1.38,1.366l-1.155,2.03
		l-0.821,2.73l-1.753,2.546l-2.237,3.469l-2.163,2.583l-0.708,1.144l-0.896-0.147c0,0-0.336-2.841,0.112-3.727
		c0.448-0.886-0.299-0.923-0.522-1.181c-0.224-0.258-0.56-0.812-0.821-1.07c-0.261-0.259-0.074-0.665-0.074-0.665
		c0.297-0.738-0.634-0.443-0.634-0.443l-0.521-0.222l-0.374-0.444L24.58,34.7l-1.193-0.849l0.112-2.066l-1.083-0.073l-0.82,0.147
		l-3.618,2.51c-2.125,1.181-1.566,3.912-1.008,5.757c0.56,1.844,3.021,3.247,3.021,3.247l0.336,0.407l0.335,0.811v1.292
		c-1.118,0.443-2.05,2.693-2.05,2.693s0.075,1.881,0.112,6.125c0.038,4.244,3.543,8.377,3.543,8.377l0.038,0.369l0.112,1.477
		c0.598,1.66,1.865,2.693,1.865,2.693l0.038,0.887c-1.007,0.924-1.156,3.098-1.156,3.098l-0.038,0.813l0.447,0.774
		c3.953,5.313,4.885,4.355,4.885,4.355c1.231,0,3.395-2.325,3.395-2.325c1.753,1.145,4.179,0.923,4.179,0.923
		c4.886-0.037,6.45-3.469,6.45-3.469l3.06-0.517c4.288-1.033,10.03-4.354,10.03-4.354l0.374-0.185l0.373-0.037l0.672,0.074
		l0.187,0.331c0,0,0.82,0.371,3.02,2.4c2.199,2.03,6.042,2.509,6.863,2.73c0.821,0.223,4.327,1.146,4.327,1.146l3.355,0.369
		l0.15,0.479l-0.075,0.371l-0.261,0.11l-0.111,0.294l0.073,0.406l0.446-0.074l0.3-0.073l0.299-0.11l0.97-0.073l0.224,0.37
		c0.484,0.664,1.083,0.847,2.275,0.847c1.193,0,1.565-0.959,1.565-0.959l0.112-1.771l0.149-0.553l0.411-0.85l0.373-0.552
		l0.483-0.665l0.188-0.701l0.483-0.884l0.288-0.353l0.146-0.44l0.016-0.352c0,0-0.039-1.255,0.036-1.625
		c0.075-0.368,0.596-0.442,1.118-0.295c0.524,0.148,0.225,1.329,0.225,1.329c-0.483,0.185-1.007,0.369-1.044,1.585
		c-0.031,1.018,0.969,1.489,1.302,1.618c0.014,0.063,0.024,0.12,0.04,0.191c0.447,2.066,2.051,3.1,2.051,3.1
		c0.3,1.919,1.642,1.476,2.238,2.619c0.489,0.936,1.516,1.741,1.877,2.004L91.091,106.82L91.091,106.82z M23.538,98.935
		c-0.3,0.883-0.676,1.547-1.131,1.988c-0.823,0.823-2.017,1.233-3.585,1.233c-1.529,0-2.789-0.478-3.781-1.436
		c-0.992-0.958-1.487-2.401-1.487-4.324s0.47-3.412,1.409-4.464c0.94-1.05,2.223-1.576,3.852-1.576c1.599,0,2.805,0.373,3.62,1.117
		c0.454,0.419,0.828,1.041,1.119,1.862h4.571c-0.07-1.07-0.568-2.135-1.497-3.198c-1.686-1.895-4.347-2.839-7.985-2.839
		c-2.721,0-4.963,0.706-6.723,2.117c-2.027,1.623-3.04,3.929-3.04,6.924c0,2.769,0.89,4.95,2.672,6.54
		c1.781,1.583,4.227,2.374,7.339,2.374c2.515,0,4.577-0.587,6.188-1.759c1.609-1.169,2.609-2.691,3.001-4.56L23.538,98.935
		L23.538,98.935z M34.429,98.197h4.463c1.272,0,2.142,0.191,2.604,0.571c0.464,0.381,0.704,1.144,0.723,2.286l0.03,1.669
		c0.008,0.525,0.074,1.041,0.192,1.546c0.06,0.241,0.159,0.563,0.297,0.959h5.046v-0.45c-0.445-0.218-0.725-0.558-0.846-1.02
		c-0.08-0.294-0.12-0.849-0.12-1.669v-1.203c0-1.258-0.209-2.191-0.629-2.805c-0.421-0.611-1.135-1.083-2.144-1.416
		c1.206-0.341,2.07-0.921,2.596-1.746c0.523-0.821,0.786-1.659,0.786-2.511c0-0.707-0.135-1.335-0.406-1.886
		c-0.268-0.553-0.635-1.054-1.098-1.507c-0.561-0.553-1.244-0.972-2.048-1.254c-0.806-0.284-1.957-0.438-3.45-0.462H29.964v17.929
		h4.465V98.197z M34.429,90.412h5.046c0.94,0,1.644,0.107,2.113,0.318c0.837,0.375,1.254,1.102,1.254,2.188
		c0,1.005-0.431,1.679-1.296,2.021c-0.489,0.195-1.222,0.292-2.198,0.292H34.43L34.429,90.412L34.429,90.412z M67.443,98.042V87.317
		h-4.646v10.717c0,1.201-0.178,2.075-0.532,2.626c-0.552,0.978-1.75,1.468-3.592,1.468c-1.853,0-3.055-0.49-3.608-1.468
		c-0.355-0.552-0.532-1.426-0.532-2.626V87.317H49.89v10.725c0,1.856,0.36,3.3,1.081,4.334c1.353,1.894,3.92,2.842,7.703,2.842
		c3.781,0,6.346-0.948,7.687-2.842C67.082,101.343,67.443,99.898,67.443,98.042z M87.096,87.348h-5.283l-4.007,5.827l-3.901-5.827
		h-5.46l6.692,8.773l-7.033,9.117h5.312l4.391-6.099l4.156,6.099h5.548l-7.107-9.261L87.096,87.348z M21.369,115.926h1.107v-1.953
		h1.763v-0.895h-1.763v-1.11h1.887v-0.901h-2.995V115.926z M29.333,113.649v-0.022c0.423-0.151,0.868-0.577,0.868-1.189
		c0-0.446-0.161-0.786-0.459-1.016c-0.349-0.282-0.859-0.39-1.588-0.39c-0.597,0-1.122,0.044-1.479,0.107v4.788h1.1v-1.91h0.328
		c0.459,0.007,0.67,0.166,0.809,0.778c0.138,0.6,0.262,0.995,0.335,1.132h1.136c-0.094-0.188-0.24-0.821-0.393-1.377
		C29.865,114.104,29.675,113.786,29.333,113.649z M28.21,113.224h-0.437v-1.334c0.08-0.021,0.232-0.036,0.502-0.036
		c0.511,0,0.816,0.229,0.816,0.671C29.093,112.95,28.764,113.224,28.21,113.224z M33.611,111.066l-1.501,4.859h1.151l0.342-1.247
		h1.413l0.379,1.247h1.196l-1.532-4.859H33.611z M33.763,113.857l0.299-1.031c0.073-0.28,0.154-0.649,0.219-0.937h0.021
		c0.074,0.28,0.161,0.647,0.241,0.937l0.305,1.031H33.763z M42.312,111.066l-0.517,1.616c-0.168,0.548-0.336,1.182-0.467,1.744
		h-0.028c-0.108-0.569-0.255-1.175-0.415-1.73l-0.481-1.629h-1.479l-0.313,4.86h1.028l0.095-1.845
		c0.029-0.605,0.057-1.355,0.081-2.012h0.014c0.124,0.641,0.285,1.326,0.445,1.903l0.524,1.874h0.867l0.597-1.896
		c0.191-0.569,0.395-1.263,0.554-1.881h0.016c0,0.712,0.021,1.412,0.044,1.996l0.08,1.86h1.078l-0.262-4.86L42.312,111.066
		L42.312,111.066z M47.472,113.871h1.808v-0.893h-1.808v-1.011h1.916v-0.901h-3.024v4.859h3.127v-0.902h-2.019V113.871z
		 M55.816,113.05c-0.104,0.584-0.212,1.153-0.286,1.693h-0.013c-0.074-0.541-0.154-1.059-0.263-1.628l-0.394-2.049h-1.181
		l-0.415,1.983c-0.125,0.606-0.24,1.19-0.32,1.723h-0.017c-0.08-0.497-0.182-1.123-0.29-1.708l-0.372-1.998h-1.189l1.167,4.859
		h1.217l0.466-2.09c0.117-0.49,0.196-0.95,0.283-1.5h0.017c0.057,0.556,0.138,1.01,0.232,1.5l0.416,2.09h1.201l1.267-4.859h-1.128
		L55.816,113.05z M61.558,110.988c-1.442,0-2.391,1.088-2.391,2.546c0,1.384,0.86,2.472,2.31,2.472h0.009
		c1.436,0,2.403-0.957,2.403-2.558C63.889,112.105,63.066,110.988,61.558,110.988z M61.529,115.133h-0.007
		c-0.744,0-1.188-0.713-1.188-1.629c0-0.908,0.429-1.645,1.194-1.645c0.765,0,1.18,0.752,1.18,1.623
		C62.709,114.434,62.28,115.133,61.529,115.133z M68.75,113.649v-0.022c0.423-0.151,0.868-0.577,0.868-1.189
		c0-0.446-0.161-0.786-0.459-1.016c-0.351-0.282-0.86-0.39-1.59-0.39c-0.597,0-1.121,0.044-1.478,0.107v4.788h1.1v-1.91h0.329
		c0.459,0.007,0.669,0.166,0.808,0.778c0.139,0.6,0.263,0.995,0.336,1.132h1.137c-0.096-0.188-0.24-0.821-0.395-1.377
		C69.283,114.104,69.094,113.786,68.75,113.649z M67.628,113.224H67.19v-1.334c0.08-0.021,0.233-0.036,0.505-0.036
		c0.509,0,0.814,0.229,0.814,0.671C68.51,112.95,68.183,113.224,67.628,113.224z M75.819,111.066h-1.371l-1.107,1.616
		c-0.116,0.172-0.232,0.346-0.341,0.532h-0.017v-2.148h-1.099v4.859h1.099v-1.585l0.416-0.513l1.209,2.098h1.29l-1.704-2.789
		L75.819,111.066z"/>
</g>
</svg>
